<svg width="4935" height="693" viewBox="0 0 4935 693" fill="none" xmlns="http://www.w3.org/2000/svg">
<path d="M481.5 256.5C481.5 293.1 473.1 326.7 456.3 357.3C439.5 387.3 413.7 411.6 378.9 430.2C344.1 448.8 300.9 458.1 249.3 458.1H153.9V684.9H-4.63873e-05V53.1004H249.3C299.7 53.1004 342.3 61.8004 377.1 79.2004C411.9 96.6003 438 120.6 455.4 151.2C472.8 181.8 481.5 216.9 481.5 256.5ZM237.6 335.7C267 335.7 288.9 328.8 303.3 315C317.7 301.2 324.9 281.7 324.9 256.5C324.9 231.3 317.7 211.8 303.3 198C288.9 184.2 267 177.3 237.6 177.3H153.9V335.7H237.6ZM790.221 692.1C741.021 692.1 696.621 681.6 657.021 660.6C618.021 639.6 587.121 609.6 564.321 570.6C542.121 531.6 531.021 486 531.021 433.8C531.021 382.2 542.421 336.9 565.221 297.9C588.021 258.3 619.221 228 658.821 207C698.421 186 742.821 175.5 792.021 175.5C841.221 175.5 885.621 186 925.221 207C964.821 228 996.021 258.3 1018.82 297.9C1041.62 336.9 1053.02 382.2 1053.02 433.8C1053.02 485.4 1041.32 531 1017.92 570.6C995.121 609.6 963.621 639.6 923.421 660.6C883.821 681.6 839.421 692.1 790.221 692.1ZM790.221 558.9C819.621 558.9 844.521 548.1 864.921 526.5C885.921 504.9 896.421 474 896.421 433.8C896.421 393.6 886.221 362.7 865.821 341.1C846.021 319.5 821.421 308.7 792.021 308.7C762.021 308.7 737.121 319.5 717.321 341.1C697.521 362.1 687.621 393 687.621 433.8C687.621 474 697.221 504.9 716.421 526.5C736.221 548.1 760.821 558.9 790.221 558.9ZM1338.97 692.1C1295.17 692.1 1256.17 684.6 1221.97 669.6C1187.77 654.6 1160.77 634.2 1140.97 608.4C1121.17 582 1110.07 552.6 1107.67 520.2H1259.77C1261.57 537.6 1269.67 551.7 1284.07 562.5C1298.47 573.3 1316.17 578.7 1337.17 578.7C1356.37 578.7 1371.07 575.1 1381.27 567.9C1392.07 560.1 1397.47 550.2 1397.47 538.2C1397.47 523.8 1389.97 513.3 1374.97 506.7C1359.97 499.5 1335.67 491.7 1302.07 483.3C1266.07 474.9 1236.07 466.2 1212.07 457.2C1188.07 447.6 1167.37 432.9 1149.97 413.1C1132.57 392.7 1123.87 365.4 1123.87 331.2C1123.87 302.4 1131.67 276.3 1147.27 252.9C1163.47 228.9 1186.87 210 1217.47 196.2C1248.67 182.4 1285.57 175.5 1328.17 175.5C1391.17 175.5 1440.67 191.1 1476.67 222.3C1513.27 253.5 1534.27 294.9 1539.67 346.5H1397.47C1395.07 329.1 1387.27 315.3 1374.07 305.1C1361.47 294.9 1344.67 289.8 1323.67 289.8C1305.67 289.8 1291.87 293.4 1282.27 300.6C1272.67 307.2 1267.87 316.5 1267.87 328.5C1267.87 342.9 1275.37 353.7 1290.37 360.9C1305.97 368.1 1329.97 375.3 1362.37 382.5C1399.57 392.1 1429.87 401.7 1453.27 411.3C1476.67 420.3 1497.07 435.3 1514.47 456.3C1532.47 476.7 1541.77 504.3 1542.37 539.1C1542.37 568.5 1533.97 594.9 1517.17 618.3C1500.97 641.1 1477.27 659.1 1446.07 672.3C1415.47 685.5 1379.77 692.1 1338.97 692.1ZM2109.92 425.7C2109.92 440.1 2109.02 455.1 2107.22 470.7H1758.92C1761.32 501.9 1771.22 525.9 1788.62 542.7C1806.62 558.9 1828.52 567 1854.32 567C1892.72 567 1919.42 550.8 1934.42 518.4H2098.22C2089.82 551.4 2074.52 581.1 2052.32 607.5C2030.72 633.9 2003.42 654.6 1970.42 669.6C1937.42 684.6 1900.52 692.1 1859.72 692.1C1810.52 692.1 1766.72 681.6 1728.32 660.6C1689.92 639.6 1659.92 609.6 1638.32 570.6C1616.72 531.6 1605.92 486 1605.92 433.8C1605.92 381.6 1616.42 336 1637.42 297C1659.02 258 1689.02 228 1727.42 207C1765.82 186 1809.92 175.5 1859.72 175.5C1908.32 175.5 1951.52 185.7 1989.32 206.1C2027.12 226.5 2056.52 255.6 2077.52 293.4C2099.12 331.2 2109.92 375.3 2109.92 425.7ZM1952.42 385.2C1952.42 358.8 1943.42 337.8 1925.42 322.2C1907.42 306.6 1884.92 298.8 1857.92 298.8C1832.12 298.8 1810.22 306.3 1792.22 321.3C1774.82 336.3 1764.02 357.6 1759.82 385.2H1952.42Z" fill="#2D3540"/>
<path d="M2403.51 691.2C2362.11 691.2 2324.91 684 2291.91 669.6C2259.51 654.6 2234.01 634.2 2215.41 608.4C2196.81 582 2187.21 551.7 2186.61 517.5H2273.91C2276.91 546.9 2288.91 571.8 2309.91 592.2C2331.51 612 2362.71 621.9 2403.51 621.9C2442.51 621.9 2473.11 612.3 2495.31 593.1C2518.11 573.3 2529.51 548.1 2529.51 517.5C2529.51 493.5 2522.91 474 2509.71 459C2496.51 444 2480.01 432.6 2460.21 424.8C2440.41 417 2413.71 408.6 2380.11 399.6C2338.71 388.8 2305.41 378 2280.21 367.2C2255.61 356.4 2234.31 339.6 2216.31 316.8C2198.91 293.4 2190.21 262.2 2190.21 223.2C2190.21 189 2198.91 158.7 2216.31 132.3C2233.71 105.9 2258.01 85.5003 2289.21 71.1004C2321.01 56.7004 2357.31 49.5004 2398.11 49.5004C2456.91 49.5004 2504.91 64.2004 2542.11 93.6004C2579.91 123 2601.21 162 2606.01 210.6H2516.01C2513.01 186.6 2500.41 165.6 2478.21 147.6C2456.01 129 2426.61 119.7 2390.01 119.7C2355.81 119.7 2327.91 128.7 2306.31 146.7C2284.71 164.1 2273.91 188.7 2273.91 220.5C2273.91 243.3 2280.21 261.9 2292.81 276.3C2306.01 290.7 2321.91 301.8 2340.51 309.6C2359.71 316.8 2386.41 325.2 2420.61 334.8C2462.01 346.2 2495.31 357.6 2520.51 369C2545.71 379.8 2567.31 396.9 2585.31 420.3C2603.31 443.1 2612.31 474.3 2612.31 513.9C2612.31 544.5 2604.21 573.3 2588.01 600.3C2571.81 627.3 2547.81 649.2 2516.01 666C2484.21 682.8 2446.71 691.2 2403.51 691.2ZM2832.74 259.2V549.9C2832.74 573.9 2837.84 591 2848.04 601.2C2858.24 610.8 2875.94 615.6 2901.14 615.6H2961.44V684.9H2887.64C2842.04 684.9 2807.84 674.4 2785.04 653.4C2762.24 632.4 2750.84 597.9 2750.84 549.9V259.2H2686.94V191.7H2750.84V67.5003H2832.74V191.7H2961.44V259.2H2832.74ZM3498.07 191.7V684.9H3416.17V612C3400.57 637.2 3378.67 657 3350.47 671.4C3322.87 685.2 3292.27 692.1 3258.67 692.1C3220.27 692.1 3185.77 684.3 3155.17 668.7C3124.57 652.5 3100.27 628.5 3082.27 596.7C3064.87 564.9 3056.17 526.2 3056.17 480.6V191.7H3137.17V469.8C3137.17 518.4 3149.47 555.9 3174.07 582.3C3198.67 608.1 3232.27 621 3274.87 621C3318.67 621 3353.17 607.5 3378.37 580.5C3403.57 553.5 3416.17 514.2 3416.17 462.6V191.7H3498.07ZM3605.75 436.5C3605.75 386.1 3615.95 342 3636.35 304.2C3656.75 265.8 3684.65 236.1 3720.05 215.1C3756.05 194.1 3796.25 183.6 3840.65 183.6C3879.05 183.6 3914.75 192.6 3947.75 210.6C3980.75 228 4005.95 251.1 4023.35 279.9V18.9004H4106.15V684.9H4023.35V592.2C4007.15 621.6 3983.15 645.9 3951.35 665.1C3919.55 683.7 3882.35 693 3839.75 693C3795.95 693 3756.05 682.2 3720.05 660.6C3684.65 639 3656.75 608.7 3636.35 569.7C3615.95 530.7 3605.75 486.3 3605.75 436.5ZM4023.35 437.4C4023.35 400.2 4015.85 367.8 4000.85 340.2C3985.85 312.6 3965.45 291.6 3939.65 277.2C3914.45 262.2 3886.55 254.7 3855.95 254.7C3825.35 254.7 3797.45 261.9 3772.25 276.3C3747.05 290.7 3726.95 311.7 3711.95 339.3C3696.95 366.9 3689.45 399.3 3689.45 436.5C3689.45 474.3 3696.95 507.3 3711.95 535.5C3726.95 563.1 3747.05 584.4 3772.25 599.4C3797.45 613.8 3825.35 621 3855.95 621C3886.55 621 3914.45 613.8 3939.65 599.4C3965.45 584.4 3985.85 563.1 4000.85 535.5C4015.85 507.3 4023.35 474.6 4023.35 437.4ZM4286.85 111.6C4271.25 111.6 4258.05 106.2 4247.25 95.4004C4236.45 84.6004 4231.05 71.4003 4231.05 55.8003C4231.05 40.2004 4236.45 27.0004 4247.25 16.2004C4258.05 5.40036 4271.25 0.000357151 4286.85 0.000357151C4301.85 0.000357151 4314.45 5.40036 4324.65 16.2004C4335.45 27.0004 4340.85 40.2004 4340.85 55.8003C4340.85 71.4003 4335.45 84.6004 4324.65 95.4004C4314.45 106.2 4301.85 111.6 4286.85 111.6ZM4326.45 191.7V684.9H4244.55V191.7H4326.45ZM4681.14 693C4634.94 693 4592.94 682.5 4555.14 661.5C4517.94 640.5 4488.54 610.8 4466.94 572.4C4445.94 533.4 4435.44 488.4 4435.44 437.4C4435.44 387 4446.24 342.6 4467.84 304.2C4490.04 265.2 4520.04 235.5 4557.84 215.1C4595.64 194.1 4637.94 183.6 4684.74 183.6C4731.54 183.6 4773.84 194.1 4811.64 215.1C4849.44 235.5 4879.14 264.9 4900.74 303.3C4922.94 341.7 4934.04 386.4 4934.04 437.4C4934.04 488.4 4922.64 533.4 4899.84 572.4C4877.64 610.8 4847.34 640.5 4808.94 661.5C4770.54 682.5 4727.94 693 4681.14 693ZM4681.14 621C4710.54 621 4738.14 614.1 4763.94 600.3C4789.74 586.5 4810.44 565.8 4826.04 538.2C4842.24 510.6 4850.34 477 4850.34 437.4C4850.34 397.8 4842.54 364.2 4826.94 336.6C4811.34 309 4790.94 288.6 4765.74 275.4C4740.54 261.6 4713.24 254.7 4683.84 254.7C4653.84 254.7 4626.24 261.6 4601.04 275.4C4576.44 288.6 4556.64 309 4541.64 336.6C4526.64 364.2 4519.14 397.8 4519.14 437.4C4519.14 477.6 4526.34 511.5 4540.74 539.1C4555.74 566.7 4575.54 587.4 4600.14 601.2C4624.74 614.4 4651.74 621 4681.14 621Z" fill="#1D84C7"/>
</svg>
