<svg width="6519" height="1580" viewBox="0 0 6519 1580" fill="none" xmlns="http://www.w3.org/2000/svg">
<path d="M2027.3 676.6C2027.3 713.2 2018.9 746.8 2002.1 777.4C1985.3 807.4 1959.5 831.7 1924.7 850.3C1889.9 868.9 1846.7 878.2 1795.1 878.2H1699.7V1105H1545.8V473.2H1795.1C1845.5 473.2 1888.1 481.9 1922.9 499.3C1957.7 516.7 1983.8 540.7 2001.2 571.3C2018.6 601.9 2027.3 637 2027.3 676.6ZM1783.4 755.8C1812.8 755.8 1834.7 748.9 1849.1 735.1C1863.5 721.3 1870.7 701.8 1870.7 676.6C1870.7 651.4 1863.5 631.9 1849.1 618.1C1834.7 604.3 1812.8 597.4 1783.4 597.4H1699.7V755.8H1783.4ZM2336.02 1112.2C2286.82 1112.2 2242.42 1101.7 2202.82 1080.7C2163.82 1059.7 2132.92 1029.7 2110.12 990.7C2087.92 951.7 2076.82 906.1 2076.82 853.9C2076.82 802.3 2088.22 757 2111.02 718C2133.82 678.4 2165.02 648.1 2204.62 627.1C2244.22 606.1 2288.62 595.6 2337.82 595.6C2387.02 595.6 2431.42 606.1 2471.02 627.1C2510.62 648.1 2541.82 678.4 2564.62 718C2587.42 757 2598.82 802.3 2598.82 853.9C2598.82 905.5 2587.12 951.1 2563.72 990.7C2540.92 1029.7 2509.42 1059.7 2469.22 1080.7C2429.62 1101.7 2385.22 1112.2 2336.02 1112.2ZM2336.02 979C2365.42 979 2390.32 968.2 2410.72 946.6C2431.72 925 2442.22 894.1 2442.22 853.9C2442.22 813.7 2432.02 782.8 2411.62 761.2C2391.82 739.6 2367.22 728.8 2337.82 728.8C2307.82 728.8 2282.92 739.6 2263.12 761.2C2243.32 782.2 2233.42 813.1 2233.42 853.9C2233.42 894.1 2243.02 925 2262.22 946.6C2282.02 968.2 2306.62 979 2336.02 979ZM2884.77 1112.2C2840.97 1112.2 2801.97 1104.7 2767.77 1089.7C2733.57 1074.7 2706.57 1054.3 2686.77 1028.5C2666.97 1002.1 2655.87 972.7 2653.47 940.3H2805.57C2807.37 957.7 2815.47 971.8 2829.87 982.6C2844.27 993.4 2861.97 998.8 2882.97 998.8C2902.17 998.8 2916.87 995.2 2927.07 988C2937.87 980.2 2943.27 970.3 2943.27 958.3C2943.27 943.9 2935.77 933.4 2920.77 926.8C2905.77 919.6 2881.47 911.8 2847.87 903.4C2811.87 895 2781.87 886.3 2757.87 877.3C2733.87 867.7 2713.17 853 2695.77 833.2C2678.37 812.8 2669.67 785.5 2669.67 751.3C2669.67 722.5 2677.47 696.4 2693.07 673C2709.27 649 2732.67 630.1 2763.27 616.3C2794.47 602.5 2831.37 595.6 2873.97 595.6C2936.97 595.6 2986.47 611.2 3022.47 642.4C3059.07 673.6 3080.07 715 3085.47 766.6H2943.27C2940.87 749.2 2933.07 735.4 2919.87 725.2C2907.27 715 2890.47 709.9 2869.47 709.9C2851.47 709.9 2837.67 713.5 2828.07 720.7C2818.47 727.3 2813.67 736.6 2813.67 748.6C2813.67 763 2821.17 773.8 2836.17 781C2851.77 788.2 2875.77 795.4 2908.17 802.6C2945.37 812.2 2975.67 821.8 2999.07 831.4C3022.47 840.4 3042.87 855.4 3060.27 876.4C3078.27 896.8 3087.57 924.4 3088.17 959.2C3088.17 988.6 3079.77 1015 3062.97 1038.4C3046.77 1061.2 3023.07 1079.2 2991.87 1092.4C2961.27 1105.6 2925.57 1112.2 2884.77 1112.2ZM3655.72 845.8C3655.72 860.2 3654.82 875.2 3653.02 890.8H3304.72C3307.12 922 3317.02 946 3334.42 962.8C3352.42 979 3374.32 987.1 3400.12 987.1C3438.52 987.1 3465.22 970.9 3480.22 938.5H3644.02C3635.62 971.5 3620.32 1001.2 3598.12 1027.6C3576.52 1054 3549.22 1074.7 3516.22 1089.7C3483.22 1104.7 3446.32 1112.2 3405.52 1112.2C3356.32 1112.2 3312.52 1101.7 3274.12 1080.7C3235.72 1059.7 3205.72 1029.7 3184.12 990.7C3162.52 951.7 3151.72 906.1 3151.72 853.9C3151.72 801.7 3162.22 756.1 3183.22 717.1C3204.82 678.1 3234.82 648.1 3273.22 627.1C3311.62 606.1 3355.72 595.6 3405.52 595.6C3454.12 595.6 3497.32 605.8 3535.12 626.2C3572.92 646.6 3602.32 675.7 3623.32 713.5C3644.92 751.3 3655.72 795.4 3655.72 845.8ZM3498.22 805.3C3498.22 778.9 3489.22 757.9 3471.22 742.3C3453.22 726.7 3430.72 718.9 3403.72 718.9C3377.92 718.9 3356.02 726.4 3338.02 741.4C3320.62 756.4 3309.82 777.7 3305.62 805.3H3498.22Z" fill="#2D3540"/>
<path d="M3949.31 1111.3C3907.91 1111.3 3870.71 1104.1 3837.71 1089.7C3805.31 1074.7 3779.81 1054.3 3761.21 1028.5C3742.61 1002.1 3733.01 971.8 3732.41 937.6H3819.71C3822.71 967 3834.71 991.9 3855.71 1012.3C3877.31 1032.1 3908.51 1042 3949.31 1042C3988.31 1042 4018.91 1032.4 4041.11 1013.2C4063.91 993.4 4075.31 968.2 4075.31 937.6C4075.31 913.6 4068.71 894.1 4055.51 879.1C4042.31 864.1 4025.81 852.7 4006.01 844.9C3986.21 837.1 3959.51 828.7 3925.91 819.7C3884.51 808.9 3851.21 798.1 3826.01 787.3C3801.41 776.5 3780.11 759.7 3762.11 736.9C3744.71 713.5 3736.01 682.3 3736.01 643.3C3736.01 609.1 3744.71 578.8 3762.11 552.4C3779.51 526 3803.81 505.6 3835.01 491.2C3866.81 476.8 3903.11 469.6 3943.91 469.6C4002.71 469.6 4050.71 484.3 4087.91 513.7C4125.71 543.1 4147.01 582.1 4151.81 630.7H4061.81C4058.81 606.7 4046.21 585.7 4024.01 567.7C4001.81 549.1 3972.41 539.8 3935.81 539.8C3901.61 539.8 3873.71 548.8 3852.11 566.8C3830.51 584.2 3819.71 608.8 3819.71 640.6C3819.71 663.4 3826.01 682 3838.61 696.4C3851.81 710.8 3867.71 721.9 3886.31 729.7C3905.51 736.9 3932.21 745.3 3966.41 754.9C4007.81 766.3 4041.11 777.7 4066.31 789.1C4091.51 799.9 4113.11 817 4131.11 840.4C4149.11 863.2 4158.11 894.4 4158.11 934C4158.11 964.6 4150.01 993.4 4133.81 1020.4C4117.61 1047.4 4093.61 1069.3 4061.81 1086.1C4030.01 1102.9 3992.51 1111.3 3949.31 1111.3ZM4378.54 679.3V970C4378.54 994 4383.64 1011.1 4393.84 1021.3C4404.04 1030.9 4421.74 1035.7 4446.94 1035.7H4507.24V1105H4433.44C4387.84 1105 4353.64 1094.5 4330.84 1073.5C4308.04 1052.5 4296.64 1018 4296.64 970V679.3H4232.74V611.8H4296.64V487.6H4378.54V611.8H4507.24V679.3H4378.54ZM5043.87 611.8V1105H4961.97V1032.1C4946.37 1057.3 4924.47 1077.1 4896.27 1091.5C4868.67 1105.3 4838.07 1112.2 4804.47 1112.2C4766.07 1112.2 4731.57 1104.4 4700.97 1088.8C4670.37 1072.6 4646.07 1048.6 4628.07 1016.8C4610.67 985 4601.97 946.3 4601.97 900.7V611.8H4682.97V889.9C4682.97 938.5 4695.27 976 4719.87 1002.4C4744.47 1028.2 4778.07 1041.1 4820.67 1041.1C4864.47 1041.1 4898.97 1027.6 4924.17 1000.6C4949.37 973.6 4961.97 934.3 4961.97 882.7V611.8H5043.87ZM5151.55 856.6C5151.55 806.2 5161.75 762.1 5182.15 724.3C5202.55 685.9 5230.45 656.2 5265.85 635.2C5301.85 614.2 5342.05 603.7 5386.45 603.7C5424.85 603.7 5460.55 612.7 5493.55 630.7C5526.55 648.1 5551.75 671.2 5569.15 700V439H5651.95V1105H5569.15V1012.3C5552.95 1041.7 5528.95 1066 5497.15 1085.2C5465.35 1103.8 5428.15 1113.1 5385.55 1113.1C5341.75 1113.1 5301.85 1102.3 5265.85 1080.7C5230.45 1059.1 5202.55 1028.8 5182.15 989.8C5161.75 950.8 5151.55 906.4 5151.55 856.6ZM5569.15 857.5C5569.15 820.3 5561.65 787.9 5546.65 760.3C5531.65 732.7 5511.25 711.7 5485.45 697.3C5460.25 682.3 5432.35 674.8 5401.75 674.8C5371.15 674.8 5343.25 682 5318.05 696.4C5292.85 710.8 5272.75 731.8 5257.75 759.4C5242.75 787 5235.25 819.4 5235.25 856.6C5235.25 894.4 5242.75 927.4 5257.75 955.6C5272.75 983.2 5292.85 1004.5 5318.05 1019.5C5343.25 1033.9 5371.15 1041.1 5401.75 1041.1C5432.35 1041.1 5460.25 1033.9 5485.45 1019.5C5511.25 1004.5 5531.65 983.2 5546.65 955.6C5561.65 927.4 5569.15 894.7 5569.15 857.5ZM5832.65 531.7C5817.05 531.7 5803.85 526.3 5793.05 515.5C5782.25 504.7 5776.85 491.5 5776.85 475.9C5776.85 460.3 5782.25 447.1 5793.05 436.3C5803.85 425.5 5817.05 420.1 5832.65 420.1C5847.65 420.1 5860.25 425.5 5870.45 436.3C5881.25 447.1 5886.65 460.3 5886.65 475.9C5886.65 491.5 5881.25 504.7 5870.45 515.5C5860.25 526.3 5847.65 531.7 5832.65 531.7ZM5872.25 611.8V1105H5790.35V611.8H5872.25ZM6226.94 1113.1C6180.74 1113.1 6138.74 1102.6 6100.94 1081.6C6063.74 1060.6 6034.34 1030.9 6012.74 992.5C5991.74 953.5 5981.24 908.5 5981.24 857.5C5981.24 807.1 5992.04 762.7 6013.64 724.3C6035.84 685.3 6065.84 655.6 6103.64 635.2C6141.44 614.2 6183.74 603.7 6230.54 603.7C6277.34 603.7 6319.64 614.2 6357.44 635.2C6395.24 655.6 6424.94 685 6446.54 723.4C6468.74 761.8 6479.84 806.5 6479.84 857.5C6479.84 908.5 6468.44 953.5 6445.64 992.5C6423.44 1030.9 6393.14 1060.6 6354.74 1081.6C6316.34 1102.6 6273.74 1113.1 6226.94 1113.1ZM6226.94 1041.1C6256.34 1041.1 6283.94 1034.2 6309.74 1020.4C6335.54 1006.6 6356.24 985.9 6371.84 958.3C6388.04 930.7 6396.14 897.1 6396.14 857.5C6396.14 817.9 6388.34 784.3 6372.74 756.7C6357.14 729.1 6336.74 708.7 6311.54 695.5C6286.34 681.7 6259.04 674.8 6229.64 674.8C6199.64 674.8 6172.04 681.7 6146.84 695.5C6122.24 708.7 6102.44 729.1 6087.44 756.7C6072.44 784.3 6064.94 817.9 6064.94 857.5C6064.94 897.7 6072.14 931.6 6086.54 959.2C6101.54 986.8 6121.34 1007.5 6145.94 1021.3C6170.54 1034.5 6197.54 1041.1 6226.94 1041.1Z" fill="#1D84C7"/>
<path d="M336.333 237.857C419.479 198.757 511.346 204.843 548.068 213.182C574.735 218.348 641.968 242.582 697.568 298.182C753.168 353.781 774.068 469.015 777.568 519.682C780.91 568.056 768.754 1028.62 767.647 1070.18C747.677 1062.43 726.379 1052.6 704.52 1041.4C636.424 1006.51 566.508 960.26 520.434 928.887L454.186 735.902L448.937 720.61L432.867 718.836L431.573 718.684C404.228 715.322 365.909 699.979 330.328 678.569C312.574 667.886 296.293 656.161 283.188 644.556C273.772 636.216 266.612 628.479 261.683 621.751C260.213 618.831 258.767 616.024 257.345 613.338C247.209 576.208 237.845 514.1 243.929 446.709C250.547 373.398 274.401 303.291 324.765 249.669C328.576 245.612 332.434 241.676 336.333 237.857Z" fill="#1D84C7"/>
<path d="M523.993 1370.31L232 1221.03C246.327 1195.33 262.235 1162.32 276.091 1128.98C294.667 1084.29 316.243 1023.36 321.804 967.346C323.866 954.506 325.34 941.708 326.296 929L523.993 1370.31Z" fill="#1D84C7"/>
<path d="M236.5 167.148C384.9 9.14833 585.333 -8.35167 667 2.64833C781.5 10.4817 1029.7 93.8483 1106.5 364.648C1183.3 635.448 1039.83 1036.48 958.5 1203.15L955.309 1203.67C888.219 1214.54 816.727 1220.51 789 1222.15V1275.15L835.5 1290.65L667 1579.65L0 1238.65L114.5 1181.65C136.9 1148.45 195.5 1027.65 201.5 952.148C222.3 831.748 172.5 707.648 145 660.648C113.789 562.367 88.2999 326.997 234.769 169.004L236.5 167.148ZM326.088 929.221C325.132 941.929 323.657 954.726 321.596 967.566C316.035 1023.58 294.459 1084.51 275.883 1129.2C262.027 1162.54 246.119 1195.55 231.792 1221.25L523.785 1370.53L326.088 929.221ZM650.848 122.565C596.383 115.229 439.265 128.008 324.697 249.987C274.333 303.61 250.479 373.716 243.86 447.027C237.776 514.418 247.141 576.526 257.276 613.656C258.699 616.342 260.144 619.15 261.615 622.069C266.544 628.797 273.703 636.534 283.12 644.874C296.225 656.48 312.506 668.204 330.26 678.888C365.841 700.298 404.16 715.64 431.505 719.003L432.799 719.154L448.869 720.929L454.118 736.221L520.366 929.205C566.44 960.579 636.355 1006.83 704.452 1041.72C740.332 1060.1 774.699 1074.8 804.166 1082.67C834.19 1090.7 854.056 1090.23 865.269 1085.16L874.827 1079.72L890.941 1056.4C920.148 983.583 951.251 892.05 974.013 795.252C1008.9 646.888 1020.04 503.253 990.091 397.662C932.519 194.662 744.841 129.256 658.741 123.366L654.781 123.096L650.848 122.565Z" fill="#2D3540"/>
</svg>
