<svg width="1129" height="1580" viewBox="0 0 1129 1580" fill="none" xmlns="http://www.w3.org/2000/svg">
<path d="M336.333 237.857C419.479 198.757 511.346 204.843 548.068 213.182C574.735 218.348 641.968 242.582 697.568 298.182C753.168 353.781 774.068 469.015 777.568 519.682C780.91 568.056 768.754 1028.62 767.647 1070.18C747.677 1062.43 726.379 1052.6 704.52 1041.4C636.424 1006.51 566.508 960.26 520.434 928.887L454.186 735.902L448.937 720.61L432.867 718.836L431.573 718.684C404.228 715.322 365.909 699.979 330.328 678.569C312.574 667.886 296.293 656.161 283.188 644.556C273.772 636.216 266.612 628.479 261.683 621.751C260.213 618.831 258.767 616.024 257.345 613.338C247.209 576.208 237.845 514.1 243.929 446.709C250.547 373.398 274.401 303.291 324.765 249.669C328.576 245.612 332.434 241.676 336.333 237.857Z" fill="#1D84C7"/>
<path d="M523.993 1370.31L232 1221.03C246.327 1195.33 262.235 1162.32 276.091 1128.98C294.667 1084.29 316.243 1023.36 321.804 967.346C323.866 954.506 325.34 941.708 326.296 929L523.993 1370.31Z" fill="#1D84C7"/>
<path d="M236.5 167.148C384.9 9.14833 585.333 -8.35167 667 2.64833C781.5 10.4817 1029.7 93.8483 1106.5 364.648C1183.3 635.448 1039.83 1036.48 958.5 1203.15L955.309 1203.67C888.219 1214.54 816.727 1220.51 789 1222.15V1275.15L835.5 1290.65L667 1579.65L0 1238.65L114.5 1181.65C136.9 1148.45 195.5 1027.65 201.5 952.148C222.3 831.748 172.5 707.648 145 660.648C113.789 562.367 88.2999 326.997 234.769 169.004L236.5 167.148ZM326.088 929.221C325.132 941.929 323.657 954.726 321.596 967.566C316.035 1023.58 294.459 1084.51 275.883 1129.2C262.027 1162.54 246.119 1195.55 231.792 1221.25L523.785 1370.53L326.088 929.221ZM650.848 122.565C596.383 115.229 439.265 128.008 324.697 249.987C274.333 303.61 250.479 373.716 243.86 447.027C237.776 514.418 247.141 576.526 257.276 613.656C258.699 616.342 260.144 619.15 261.615 622.069C266.544 628.797 273.703 636.534 283.12 644.874C296.225 656.48 312.506 668.204 330.26 678.888C365.841 700.298 404.16 715.64 431.505 719.003L432.799 719.154L448.869 720.929L454.118 736.221L520.366 929.205C566.44 960.579 636.355 1006.83 704.452 1041.72C740.332 1060.1 774.699 1074.8 804.166 1082.67C834.19 1090.7 854.056 1090.23 865.269 1085.16L874.827 1079.72L890.941 1056.4C920.148 983.583 951.251 892.05 974.013 795.252C1008.9 646.888 1020.04 503.253 990.091 397.662C932.519 194.662 744.841 129.256 658.741 123.366L654.781 123.096L650.848 122.565Z" fill="#2D3540"/>
</svg>
